<?xml version="1.0" standalone="no"?>
<!DOCTYPE svg PUBLIC "-//W3C//DTD SVG 20010904//EN"
 "http://www.w3.org/TR/2001/REC-SVG-20010904/DTD/svg10.dtd">
<svg version="1.0" xmlns="http://www.w3.org/2000/svg"
 width="100.000000pt" height="100.000000pt" viewBox="0 0 100.000000 100.000000"
 preserveAspectRatio="xMidYMid meet">

<g transform="translate(0.000000,100.000000) scale(0.100000,-0.100000)"
fill="#000000" stroke="none">
<path d="M458 938 c-116 -143 -232 -338 -274 -463 -30 -92 -29 -173 5 -250 28
-63 104 -140 170 -172 48 -24 68 -28 141 -28 73 0 93 4 141 28 66 32 142 109
170 172 11 24 22 73 26 107 10 109 -55 264 -195 468 -74 108 -131 180 -142
180 -4 0 -23 -19 -42 -42z m-153 -615 c6 -27 21 -64 33 -81 19 -27 87 -67 145
-86 21 -7 22 -25 2 -33 -41 -15 -168 65 -200 127 -17 34 -29 96 -21 116 11 28
30 9 41 -43z"/>
</g>
</svg>
